<svg width="6" height="6" viewBox="0 0 6 6" fill="none" xmlns="http://www.w3.org/2000/svg">
<path d="M4.66752 2.76588L1.99745 0.0958529C1.93569 0.0340485 1.85325 0 1.76535 0C1.67745 0 1.59501 0.0340485 1.53325 0.0958529L1.33662 0.292437C1.20867 0.420533 1.20867 0.628727 1.33662 0.756628L3.57875 2.99876L1.33413 5.24337C1.27238 5.30518 1.23828 5.38757 1.23828 5.47542C1.23828 5.56337 1.27238 5.64576 1.33413 5.70761L1.53077 5.90415C1.59257 5.96595 1.67496 6 1.76286 6C1.85076 6 1.9332 5.96595 1.99496 5.90415L4.66752 3.23168C4.72942 3.16968 4.76342 3.0869 4.76323 2.9989C4.76342 2.91056 4.72942 2.82783 4.66752 2.76588Z" fill="white"/>
</svg>
